<svg width="2122" height="555" viewBox="0 0 2122 555" fill="none" xmlns="http://www.w3.org/2000/svg">
<path d="M2121.85 494.805H447.095L234.443 277.08L447.095 59.3555H2121.85L1973.73 277.08L2121.85 494.805Z" fill="url(#paint0_linear_2_85)"/>
<path d="M455.934 473.886L263.679 277.028L455.934 80.2755H2082.31L1948.42 277.028L2082.31 473.886H455.934Z" fill="url(#paint1_linear_2_85)"/>
<g style="mix-blend-mode:multiply" opacity="0.48">
<path d="M234.443 277.08L425.338 472.369C461.877 454.432 492.656 426.611 514.182 392.064C535.708 357.517 547.118 317.628 547.118 276.924C547.118 236.219 535.708 196.33 514.182 161.783C492.656 127.236 461.877 99.4156 425.338 81.4785L234.443 277.08Z" fill="#A8A8A8"/>
</g>
<path d="M635.062 280.156H622.906V275.25H635.062C637.417 275.25 639.323 274.875 640.781 274.125C642.24 273.375 643.302 272.333 643.969 271C644.656 269.667 645 268.146 645 266.438C645 264.875 644.656 263.406 643.969 262.031C643.302 260.656 642.24 259.552 640.781 258.719C639.323 257.865 637.417 257.438 635.062 257.438H624.312V298H618.281V252.5H635.062C638.5 252.5 641.406 253.094 643.781 254.281C646.156 255.469 647.958 257.115 649.188 259.219C650.417 261.302 651.031 263.688 651.031 266.375C651.031 269.292 650.417 271.781 649.188 273.844C647.958 275.906 646.156 277.479 643.781 278.562C641.406 279.625 638.5 280.156 635.062 280.156ZM664.062 250V298H658.25V250H664.062ZM687.375 298.625C685.021 298.625 682.885 298.229 680.969 297.438C679.073 296.625 677.438 295.49 676.062 294.031C674.708 292.573 673.667 290.844 672.938 288.844C672.208 286.844 671.844 284.656 671.844 282.281V280.969C671.844 278.219 672.25 275.771 673.062 273.625C673.875 271.458 674.979 269.625 676.375 268.125C677.771 266.625 679.354 265.49 681.125 264.719C682.896 263.948 684.729 263.562 686.625 263.562C689.042 263.562 691.125 263.979 692.875 264.812C694.646 265.646 696.094 266.812 697.219 268.312C698.344 269.792 699.177 271.542 699.719 273.562C700.26 275.562 700.531 277.75 700.531 280.125V282.719H675.281V278H694.75V277.562C694.667 276.062 694.354 274.604 693.812 273.188C693.292 271.771 692.458 270.604 691.312 269.688C690.167 268.771 688.604 268.312 686.625 268.312C685.312 268.312 684.104 268.594 683 269.156C681.896 269.698 680.948 270.51 680.156 271.594C679.365 272.677 678.75 274 678.312 275.562C677.875 277.125 677.656 278.927 677.656 280.969V282.281C677.656 283.885 677.875 285.396 678.312 286.812C678.771 288.208 679.427 289.438 680.281 290.5C681.156 291.562 682.208 292.396 683.438 293C684.688 293.604 686.104 293.906 687.688 293.906C689.729 293.906 691.458 293.49 692.875 292.656C694.292 291.823 695.531 290.708 696.594 289.312L700.094 292.094C699.365 293.198 698.438 294.25 697.312 295.25C696.188 296.25 694.802 297.062 693.156 297.688C691.531 298.312 689.604 298.625 687.375 298.625ZM727.219 292.219V274.812C727.219 273.479 726.948 272.323 726.406 271.344C725.885 270.344 725.094 269.573 724.031 269.031C722.969 268.49 721.656 268.219 720.094 268.219C718.635 268.219 717.354 268.469 716.25 268.969C715.167 269.469 714.312 270.125 713.688 270.938C713.083 271.75 712.781 272.625 712.781 273.562H707C707 272.354 707.312 271.156 707.938 269.969C708.562 268.781 709.458 267.708 710.625 266.75C711.812 265.771 713.229 265 714.875 264.438C716.542 263.854 718.396 263.562 720.438 263.562C722.896 263.562 725.062 263.979 726.938 264.812C728.833 265.646 730.312 266.906 731.375 268.594C732.458 270.26 733 272.354 733 274.875V290.625C733 291.75 733.094 292.948 733.281 294.219C733.49 295.49 733.792 296.583 734.188 297.5V298H728.156C727.865 297.333 727.635 296.448 727.469 295.344C727.302 294.219 727.219 293.177 727.219 292.219ZM728.219 277.5L728.281 281.562H722.438C720.792 281.562 719.323 281.698 718.031 281.969C716.74 282.219 715.656 282.604 714.781 283.125C713.906 283.646 713.24 284.302 712.781 285.094C712.323 285.865 712.094 286.771 712.094 287.812C712.094 288.875 712.333 289.844 712.812 290.719C713.292 291.594 714.01 292.292 714.969 292.812C715.948 293.312 717.146 293.562 718.562 293.562C720.333 293.562 721.896 293.188 723.25 292.438C724.604 291.688 725.677 290.771 726.469 289.688C727.281 288.604 727.719 287.552 727.781 286.531L730.25 289.312C730.104 290.188 729.708 291.156 729.062 292.219C728.417 293.281 727.552 294.302 726.469 295.281C725.406 296.24 724.135 297.042 722.656 297.688C721.198 298.312 719.552 298.625 717.719 298.625C715.427 298.625 713.417 298.177 711.688 297.281C709.979 296.385 708.646 295.188 707.688 293.688C706.75 292.167 706.281 290.469 706.281 288.594C706.281 286.781 706.635 285.188 707.344 283.812C708.052 282.417 709.073 281.26 710.406 280.344C711.74 279.406 713.344 278.698 715.219 278.219C717.094 277.74 719.188 277.5 721.5 277.5H728.219ZM761.781 289.031C761.781 288.198 761.594 287.427 761.219 286.719C760.865 285.99 760.125 285.333 759 284.75C757.896 284.146 756.229 283.625 754 283.188C752.125 282.792 750.427 282.323 748.906 281.781C747.406 281.24 746.125 280.583 745.062 279.812C744.021 279.042 743.219 278.135 742.656 277.094C742.094 276.052 741.812 274.833 741.812 273.438C741.812 272.104 742.104 270.844 742.688 269.656C743.292 268.469 744.135 267.417 745.219 266.5C746.323 265.583 747.646 264.865 749.188 264.344C750.729 263.823 752.448 263.562 754.344 263.562C757.052 263.562 759.365 264.042 761.281 265C763.198 265.958 764.667 267.24 765.688 268.844C766.708 270.427 767.219 272.188 767.219 274.125H761.438C761.438 273.188 761.156 272.281 760.594 271.406C760.052 270.51 759.25 269.771 758.188 269.188C757.146 268.604 755.865 268.312 754.344 268.312C752.74 268.312 751.438 268.562 750.438 269.062C749.458 269.542 748.74 270.156 748.281 270.906C747.844 271.656 747.625 272.448 747.625 273.281C747.625 273.906 747.729 274.469 747.938 274.969C748.167 275.448 748.562 275.896 749.125 276.312C749.688 276.708 750.479 277.083 751.5 277.438C752.521 277.792 753.823 278.146 755.406 278.5C758.177 279.125 760.458 279.875 762.25 280.75C764.042 281.625 765.375 282.698 766.25 283.969C767.125 285.24 767.562 286.781 767.562 288.594C767.562 290.073 767.25 291.427 766.625 292.656C766.021 293.885 765.135 294.948 763.969 295.844C762.823 296.719 761.448 297.406 759.844 297.906C758.26 298.385 756.479 298.625 754.5 298.625C751.521 298.625 749 298.094 746.938 297.031C744.875 295.969 743.312 294.594 742.25 292.906C741.188 291.219 740.656 289.438 740.656 287.562H746.469C746.552 289.146 747.01 290.406 747.844 291.344C748.677 292.26 749.698 292.917 750.906 293.312C752.115 293.688 753.312 293.875 754.5 293.875C756.083 293.875 757.406 293.667 758.469 293.25C759.552 292.833 760.375 292.26 760.938 291.531C761.5 290.802 761.781 289.969 761.781 289.031ZM789.188 298.625C786.833 298.625 784.698 298.229 782.781 297.438C780.885 296.625 779.25 295.49 777.875 294.031C776.521 292.573 775.479 290.844 774.75 288.844C774.021 286.844 773.656 284.656 773.656 282.281V280.969C773.656 278.219 774.062 275.771 774.875 273.625C775.688 271.458 776.792 269.625 778.188 268.125C779.583 266.625 781.167 265.49 782.938 264.719C784.708 263.948 786.542 263.562 788.438 263.562C790.854 263.562 792.938 263.979 794.688 264.812C796.458 265.646 797.906 266.812 799.031 268.312C800.156 269.792 800.99 271.542 801.531 273.562C802.073 275.562 802.344 277.75 802.344 280.125V282.719H777.094V278H796.562V277.562C796.479 276.062 796.167 274.604 795.625 273.188C795.104 271.771 794.271 270.604 793.125 269.688C791.979 268.771 790.417 268.312 788.438 268.312C787.125 268.312 785.917 268.594 784.812 269.156C783.708 269.698 782.76 270.51 781.969 271.594C781.177 272.677 780.562 274 780.125 275.562C779.688 277.125 779.469 278.927 779.469 280.969V282.281C779.469 283.885 779.688 285.396 780.125 286.812C780.583 288.208 781.24 289.438 782.094 290.5C782.969 291.562 784.021 292.396 785.25 293C786.5 293.604 787.917 293.906 789.5 293.906C791.542 293.906 793.271 293.49 794.688 292.656C796.104 291.823 797.344 290.708 798.406 289.312L801.906 292.094C801.177 293.198 800.25 294.25 799.125 295.25C798 296.25 796.615 297.062 794.969 297.688C793.344 298.312 791.417 298.625 789.188 298.625ZM850.094 286.5C850.094 285.438 849.927 284.5 849.594 283.688C849.281 282.854 848.719 282.104 847.906 281.438C847.115 280.771 846.01 280.135 844.594 279.531C843.198 278.927 841.427 278.312 839.281 277.688C837.031 277.021 835 276.281 833.188 275.469C831.375 274.635 829.823 273.688 828.531 272.625C827.24 271.562 826.25 270.344 825.562 268.969C824.875 267.594 824.531 266.021 824.531 264.25C824.531 262.479 824.896 260.844 825.625 259.344C826.354 257.844 827.396 256.542 828.75 255.438C830.125 254.312 831.76 253.438 833.656 252.812C835.552 252.188 837.667 251.875 840 251.875C843.417 251.875 846.312 252.531 848.688 253.844C851.083 255.135 852.906 256.833 854.156 258.938C855.406 261.021 856.031 263.25 856.031 265.625H850.031C850.031 263.917 849.667 262.406 848.938 261.094C848.208 259.76 847.104 258.719 845.625 257.969C844.146 257.198 842.271 256.812 840 256.812C837.854 256.812 836.083 257.135 834.688 257.781C833.292 258.427 832.25 259.302 831.562 260.406C830.896 261.51 830.562 262.771 830.562 264.188C830.562 265.146 830.76 266.021 831.156 266.812C831.573 267.583 832.208 268.302 833.062 268.969C833.938 269.635 835.042 270.25 836.375 270.812C837.729 271.375 839.344 271.917 841.219 272.438C843.802 273.167 846.031 273.979 847.906 274.875C849.781 275.771 851.323 276.781 852.531 277.906C853.76 279.01 854.667 280.271 855.25 281.688C855.854 283.083 856.156 284.667 856.156 286.438C856.156 288.292 855.781 289.969 855.031 291.469C854.281 292.969 853.208 294.25 851.812 295.312C850.417 296.375 848.74 297.198 846.781 297.781C844.844 298.344 842.677 298.625 840.281 298.625C838.177 298.625 836.104 298.333 834.062 297.75C832.042 297.167 830.198 296.292 828.531 295.125C826.885 293.958 825.562 292.521 824.562 290.812C823.583 289.083 823.094 287.083 823.094 284.812H829.094C829.094 286.375 829.396 287.719 830 288.844C830.604 289.948 831.427 290.865 832.469 291.594C833.531 292.323 834.729 292.865 836.062 293.219C837.417 293.552 838.823 293.719 840.281 293.719C842.385 293.719 844.167 293.427 845.625 292.844C847.083 292.26 848.188 291.427 848.938 290.344C849.708 289.26 850.094 287.979 850.094 286.5ZM869.25 250V298H863.438V250H869.25ZM892.562 298.625C890.208 298.625 888.073 298.229 886.156 297.438C884.26 296.625 882.625 295.49 881.25 294.031C879.896 292.573 878.854 290.844 878.125 288.844C877.396 286.844 877.031 284.656 877.031 282.281V280.969C877.031 278.219 877.438 275.771 878.25 273.625C879.062 271.458 880.167 269.625 881.562 268.125C882.958 266.625 884.542 265.49 886.312 264.719C888.083 263.948 889.917 263.562 891.812 263.562C894.229 263.562 896.312 263.979 898.062 264.812C899.833 265.646 901.281 266.812 902.406 268.312C903.531 269.792 904.365 271.542 904.906 273.562C905.448 275.562 905.719 277.75 905.719 280.125V282.719H880.469V278H899.938V277.562C899.854 276.062 899.542 274.604 899 273.188C898.479 271.771 897.646 270.604 896.5 269.688C895.354 268.771 893.792 268.312 891.812 268.312C890.5 268.312 889.292 268.594 888.188 269.156C887.083 269.698 886.135 270.51 885.344 271.594C884.552 272.677 883.938 274 883.5 275.562C883.062 277.125 882.844 278.927 882.844 280.969V282.281C882.844 283.885 883.062 285.396 883.5 286.812C883.958 288.208 884.615 289.438 885.469 290.5C886.344 291.562 887.396 292.396 888.625 293C889.875 293.604 891.292 293.906 892.875 293.906C894.917 293.906 896.646 293.49 898.062 292.656C899.479 291.823 900.719 290.708 901.781 289.312L905.281 292.094C904.552 293.198 903.625 294.25 902.5 295.25C901.375 296.25 899.99 297.062 898.344 297.688C896.719 298.312 894.792 298.625 892.562 298.625ZM926 293.875C927.375 293.875 928.646 293.594 929.812 293.031C930.979 292.469 931.938 291.698 932.688 290.719C933.438 289.719 933.865 288.583 933.969 287.312H939.469C939.365 289.312 938.688 291.177 937.438 292.906C936.208 294.615 934.594 296 932.594 297.062C930.594 298.104 928.396 298.625 926 298.625C923.458 298.625 921.24 298.177 919.344 297.281C917.469 296.385 915.906 295.156 914.656 293.594C913.427 292.031 912.5 290.24 911.875 288.219C911.271 286.177 910.969 284.021 910.969 281.75V280.438C910.969 278.167 911.271 276.021 911.875 274C912.5 271.958 913.427 270.156 914.656 268.594C915.906 267.031 917.469 265.802 919.344 264.906C921.24 264.01 923.458 263.562 926 263.562C928.646 263.562 930.958 264.104 932.938 265.188C934.917 266.25 936.469 267.708 937.594 269.562C938.74 271.396 939.365 273.479 939.469 275.812H933.969C933.865 274.417 933.469 273.156 932.781 272.031C932.115 270.906 931.198 270.01 930.031 269.344C928.885 268.656 927.542 268.312 926 268.312C924.229 268.312 922.74 268.667 921.531 269.375C920.344 270.062 919.396 271 918.688 272.188C918 273.354 917.5 274.656 917.188 276.094C916.896 277.51 916.75 278.958 916.75 280.438V281.75C916.75 283.229 916.896 284.688 917.188 286.125C917.479 287.562 917.969 288.865 918.656 290.031C919.365 291.198 920.312 292.135 921.5 292.844C922.708 293.531 924.208 293.875 926 293.875ZM960.125 264.188V268.625H941.844V264.188H960.125ZM948.031 255.969H953.812V289.625C953.812 290.771 953.99 291.635 954.344 292.219C954.698 292.802 955.156 293.188 955.719 293.375C956.281 293.562 956.885 293.656 957.531 293.656C958.01 293.656 958.51 293.615 959.031 293.531C959.573 293.427 959.979 293.344 960.25 293.281L960.281 298C959.823 298.146 959.219 298.281 958.469 298.406C957.74 298.552 956.854 298.625 955.812 298.625C954.396 298.625 953.094 298.344 951.906 297.781C950.719 297.219 949.771 296.281 949.062 294.969C948.375 293.635 948.031 291.844 948.031 289.594V255.969ZM996.938 264.188V268.625H978.656V264.188H996.938ZM984.844 255.969H990.625V289.625C990.625 290.771 990.802 291.635 991.156 292.219C991.51 292.802 991.969 293.188 992.531 293.375C993.094 293.562 993.698 293.656 994.344 293.656C994.823 293.656 995.323 293.615 995.844 293.531C996.385 293.427 996.792 293.344 997.062 293.281L997.094 298C996.635 298.146 996.031 298.281 995.281 298.406C994.552 298.552 993.667 298.625 992.625 298.625C991.208 298.625 989.906 298.344 988.719 297.781C987.531 297.219 986.583 296.281 985.875 294.969C985.188 293.635 984.844 291.844 984.844 289.594V255.969ZM1009.5 250V298H1003.72V250H1009.5ZM1008.12 279.812L1005.72 279.719C1005.74 277.406 1006.08 275.271 1006.75 273.312C1007.42 271.333 1008.35 269.615 1009.56 268.156C1010.77 266.698 1012.21 265.573 1013.88 264.781C1015.56 263.969 1017.43 263.562 1019.47 263.562C1021.14 263.562 1022.64 263.792 1023.97 264.25C1025.3 264.688 1026.44 265.396 1027.38 266.375C1028.33 267.354 1029.06 268.625 1029.56 270.188C1030.06 271.729 1030.31 273.615 1030.31 275.844V298H1024.5V275.781C1024.5 274.01 1024.24 272.594 1023.72 271.531C1023.2 270.448 1022.44 269.667 1021.44 269.188C1020.44 268.688 1019.21 268.438 1017.75 268.438C1016.31 268.438 1015 268.74 1013.81 269.344C1012.65 269.948 1011.64 270.781 1010.78 271.844C1009.95 272.906 1009.29 274.125 1008.81 275.5C1008.35 276.854 1008.12 278.292 1008.12 279.812ZM1053 298.625C1050.65 298.625 1048.51 298.229 1046.59 297.438C1044.7 296.625 1043.06 295.49 1041.69 294.031C1040.33 292.573 1039.29 290.844 1038.56 288.844C1037.83 286.844 1037.47 284.656 1037.47 282.281V280.969C1037.47 278.219 1037.88 275.771 1038.69 273.625C1039.5 271.458 1040.6 269.625 1042 268.125C1043.4 266.625 1044.98 265.49 1046.75 264.719C1048.52 263.948 1050.35 263.562 1052.25 263.562C1054.67 263.562 1056.75 263.979 1058.5 264.812C1060.27 265.646 1061.72 266.812 1062.84 268.312C1063.97 269.792 1064.8 271.542 1065.34 273.562C1065.89 275.562 1066.16 277.75 1066.16 280.125V282.719H1040.91V278H1060.38V277.562C1060.29 276.062 1059.98 274.604 1059.44 273.188C1058.92 271.771 1058.08 270.604 1056.94 269.688C1055.79 268.771 1054.23 268.312 1052.25 268.312C1050.94 268.312 1049.73 268.594 1048.62 269.156C1047.52 269.698 1046.57 270.51 1045.78 271.594C1044.99 272.677 1044.38 274 1043.94 275.562C1043.5 277.125 1043.28 278.927 1043.28 280.969V282.281C1043.28 283.885 1043.5 285.396 1043.94 286.812C1044.4 288.208 1045.05 289.438 1045.91 290.5C1046.78 291.562 1047.83 292.396 1049.06 293C1050.31 293.604 1051.73 293.906 1053.31 293.906C1055.35 293.906 1057.08 293.49 1058.5 292.656C1059.92 291.823 1061.16 290.708 1062.22 289.312L1065.72 292.094C1064.99 293.198 1064.06 294.25 1062.94 295.25C1061.81 296.25 1060.43 297.062 1058.78 297.688C1057.16 298.312 1055.23 298.625 1053 298.625ZM1101.97 298H1092.47L1092.53 293.094H1101.97C1105.22 293.094 1107.93 292.417 1110.09 291.062C1112.26 289.688 1113.89 287.771 1114.97 285.312C1116.07 282.833 1116.62 279.938 1116.62 276.625V273.844C1116.62 271.24 1116.31 268.927 1115.69 266.906C1115.06 264.865 1114.15 263.146 1112.94 261.75C1111.73 260.333 1110.25 259.26 1108.5 258.531C1106.77 257.802 1104.78 257.438 1102.53 257.438H1092.28V252.5H1102.53C1105.51 252.5 1108.23 253 1110.69 254C1113.15 254.979 1115.26 256.406 1117.03 258.281C1118.82 260.135 1120.2 262.385 1121.16 265.031C1122.11 267.656 1122.59 270.615 1122.59 273.906V276.625C1122.59 279.917 1122.11 282.885 1121.16 285.531C1120.2 288.156 1118.81 290.396 1117 292.25C1115.21 294.104 1113.04 295.531 1110.5 296.531C1107.98 297.51 1105.14 298 1101.97 298ZM1095.69 252.5V298H1089.66V252.5H1095.69ZM1129.25 281.469V280.75C1129.25 278.312 1129.6 276.052 1130.31 273.969C1131.02 271.865 1132.04 270.042 1133.38 268.5C1134.71 266.938 1136.32 265.729 1138.22 264.875C1140.11 264 1142.24 263.562 1144.59 263.562C1146.97 263.562 1149.1 264 1151 264.875C1152.92 265.729 1154.54 266.938 1155.88 268.5C1157.23 270.042 1158.26 271.865 1158.97 273.969C1159.68 276.052 1160.03 278.312 1160.03 280.75V281.469C1160.03 283.906 1159.68 286.167 1158.97 288.25C1158.26 290.333 1157.23 292.156 1155.88 293.719C1154.54 295.26 1152.93 296.469 1151.03 297.344C1149.16 298.198 1147.03 298.625 1144.66 298.625C1142.28 298.625 1140.15 298.198 1138.25 297.344C1136.35 296.469 1134.73 295.26 1133.38 293.719C1132.04 292.156 1131.02 290.333 1130.31 288.25C1129.6 286.167 1129.25 283.906 1129.25 281.469ZM1135.03 280.75V281.469C1135.03 283.156 1135.23 284.75 1135.62 286.25C1136.02 287.729 1136.61 289.042 1137.41 290.188C1138.22 291.333 1139.23 292.24 1140.44 292.906C1141.65 293.552 1143.05 293.875 1144.66 293.875C1146.24 293.875 1147.62 293.552 1148.81 292.906C1150.02 292.24 1151.02 291.333 1151.81 290.188C1152.6 289.042 1153.2 287.729 1153.59 286.25C1154.01 284.75 1154.22 283.156 1154.22 281.469V280.75C1154.22 279.083 1154.01 277.51 1153.59 276.031C1153.2 274.531 1152.59 273.208 1151.78 272.062C1150.99 270.896 1149.99 269.979 1148.78 269.312C1147.59 268.646 1146.2 268.312 1144.59 268.312C1143.01 268.312 1141.61 268.646 1140.41 269.312C1139.22 269.979 1138.22 270.896 1137.41 272.062C1136.61 273.208 1136.02 274.531 1135.62 276.031C1135.23 277.51 1135.03 279.083 1135.03 280.75ZM1180.81 293.875C1182.19 293.875 1183.46 293.594 1184.62 293.031C1185.79 292.469 1186.75 291.698 1187.5 290.719C1188.25 289.719 1188.68 288.583 1188.78 287.312H1194.28C1194.18 289.312 1193.5 291.177 1192.25 292.906C1191.02 294.615 1189.41 296 1187.41 297.062C1185.41 298.104 1183.21 298.625 1180.81 298.625C1178.27 298.625 1176.05 298.177 1174.16 297.281C1172.28 296.385 1170.72 295.156 1169.47 293.594C1168.24 292.031 1167.31 290.24 1166.69 288.219C1166.08 286.177 1165.78 284.021 1165.78 281.75V280.438C1165.78 278.167 1166.08 276.021 1166.69 274C1167.31 271.958 1168.24 270.156 1169.47 268.594C1170.72 267.031 1172.28 265.802 1174.16 264.906C1176.05 264.01 1178.27 263.562 1180.81 263.562C1183.46 263.562 1185.77 264.104 1187.75 265.188C1189.73 266.25 1191.28 267.708 1192.41 269.562C1193.55 271.396 1194.18 273.479 1194.28 275.812H1188.78C1188.68 274.417 1188.28 273.156 1187.59 272.031C1186.93 270.906 1186.01 270.01 1184.84 269.344C1183.7 268.656 1182.35 268.312 1180.81 268.312C1179.04 268.312 1177.55 268.667 1176.34 269.375C1175.16 270.062 1174.21 271 1173.5 272.188C1172.81 273.354 1172.31 274.656 1172 276.094C1171.71 277.51 1171.56 278.958 1171.56 280.438V281.75C1171.56 283.229 1171.71 284.688 1172 286.125C1172.29 287.562 1172.78 288.865 1173.47 290.031C1174.18 291.198 1175.12 292.135 1176.31 292.844C1177.52 293.531 1179.02 293.875 1180.81 293.875ZM1221.47 290.188V264.188H1227.28V298H1221.75L1221.47 290.188ZM1222.56 283.062L1224.97 283C1224.97 285.25 1224.73 287.333 1224.25 289.25C1223.79 291.146 1223.04 292.792 1222 294.188C1220.96 295.583 1219.59 296.677 1217.91 297.469C1216.22 298.24 1214.17 298.625 1211.75 298.625C1210.1 298.625 1208.59 298.385 1207.22 297.906C1205.86 297.427 1204.7 296.688 1203.72 295.688C1202.74 294.688 1201.98 293.385 1201.44 291.781C1200.92 290.177 1200.66 288.25 1200.66 286V264.188H1206.44V286.062C1206.44 287.583 1206.6 288.844 1206.94 289.844C1207.29 290.823 1207.76 291.604 1208.34 292.188C1208.95 292.75 1209.61 293.146 1210.34 293.375C1211.09 293.604 1211.86 293.719 1212.66 293.719C1215.11 293.719 1217.06 293.25 1218.5 292.312C1219.94 291.354 1220.97 290.073 1221.59 288.469C1222.24 286.844 1222.56 285.042 1222.56 283.062ZM1241.84 270.906V298H1236.03V264.188H1241.53L1241.84 270.906ZM1240.66 279.812L1237.97 279.719C1237.99 277.406 1238.29 275.271 1238.88 273.312C1239.46 271.333 1240.32 269.615 1241.47 268.156C1242.61 266.698 1244.04 265.573 1245.75 264.781C1247.46 263.969 1249.44 263.562 1251.69 263.562C1253.27 263.562 1254.73 263.792 1256.06 264.25C1257.4 264.688 1258.55 265.385 1259.53 266.344C1260.51 267.302 1261.27 268.531 1261.81 270.031C1262.35 271.531 1262.62 273.344 1262.62 275.469V298H1256.84V275.75C1256.84 273.979 1256.54 272.562 1255.94 271.5C1255.35 270.438 1254.52 269.667 1253.44 269.188C1252.35 268.688 1251.08 268.438 1249.62 268.438C1247.92 268.438 1246.49 268.74 1245.34 269.344C1244.2 269.948 1243.28 270.781 1242.59 271.844C1241.91 272.906 1241.41 274.125 1241.09 275.5C1240.8 276.854 1240.66 278.292 1240.66 279.812ZM1262.56 276.625L1258.69 277.812C1258.71 275.958 1259.01 274.177 1259.59 272.469C1260.2 270.76 1261.06 269.24 1262.19 267.906C1263.33 266.573 1264.74 265.521 1266.41 264.75C1268.07 263.958 1269.98 263.562 1272.12 263.562C1273.94 263.562 1275.54 263.802 1276.94 264.281C1278.35 264.76 1279.54 265.5 1280.5 266.5C1281.48 267.479 1282.22 268.74 1282.72 270.281C1283.22 271.823 1283.47 273.656 1283.47 275.781V298H1277.66V275.719C1277.66 273.823 1277.35 272.354 1276.75 271.312C1276.17 270.25 1275.33 269.51 1274.25 269.094C1273.19 268.656 1271.92 268.438 1270.44 268.438C1269.17 268.438 1268.04 268.656 1267.06 269.094C1266.08 269.531 1265.26 270.135 1264.59 270.906C1263.93 271.656 1263.42 272.521 1263.06 273.5C1262.73 274.479 1262.56 275.521 1262.56 276.625ZM1306.25 298.625C1303.9 298.625 1301.76 298.229 1299.84 297.438C1297.95 296.625 1296.31 295.49 1294.94 294.031C1293.58 292.573 1292.54 290.844 1291.81 288.844C1291.08 286.844 1290.72 284.656 1290.72 282.281V280.969C1290.72 278.219 1291.12 275.771 1291.94 273.625C1292.75 271.458 1293.85 269.625 1295.25 268.125C1296.65 266.625 1298.23 265.49 1300 264.719C1301.77 263.948 1303.6 263.562 1305.5 263.562C1307.92 263.562 1310 263.979 1311.75 264.812C1313.52 265.646 1314.97 266.812 1316.09 268.312C1317.22 269.792 1318.05 271.542 1318.59 273.562C1319.14 275.562 1319.41 277.75 1319.41 280.125V282.719H1294.16V278H1313.62V277.562C1313.54 276.062 1313.23 274.604 1312.69 273.188C1312.17 271.771 1311.33 270.604 1310.19 269.688C1309.04 268.771 1307.48 268.312 1305.5 268.312C1304.19 268.312 1302.98 268.594 1301.88 269.156C1300.77 269.698 1299.82 270.51 1299.03 271.594C1298.24 272.677 1297.62 274 1297.19 275.562C1296.75 277.125 1296.53 278.927 1296.53 280.969V282.281C1296.53 283.885 1296.75 285.396 1297.19 286.812C1297.65 288.208 1298.3 289.438 1299.16 290.5C1300.03 291.562 1301.08 292.396 1302.31 293C1303.56 293.604 1304.98 293.906 1306.56 293.906C1308.6 293.906 1310.33 293.49 1311.75 292.656C1313.17 291.823 1314.41 290.708 1315.47 289.312L1318.97 292.094C1318.24 293.198 1317.31 294.25 1316.19 295.25C1315.06 296.25 1313.68 297.062 1312.03 297.688C1310.41 298.312 1308.48 298.625 1306.25 298.625ZM1331.94 271.406V298H1326.16V264.188H1331.62L1331.94 271.406ZM1330.56 279.812L1328.16 279.719C1328.18 277.406 1328.52 275.271 1329.19 273.312C1329.85 271.333 1330.79 269.615 1332 268.156C1333.21 266.698 1334.65 265.573 1336.31 264.781C1338 263.969 1339.86 263.562 1341.91 263.562C1343.57 263.562 1345.07 263.792 1346.41 264.25C1347.74 264.688 1348.88 265.396 1349.81 266.375C1350.77 267.354 1351.5 268.625 1352 270.188C1352.5 271.729 1352.75 273.615 1352.75 275.844V298H1346.94V275.781C1346.94 274.01 1346.68 272.594 1346.16 271.531C1345.64 270.448 1344.88 269.667 1343.88 269.188C1342.88 268.688 1341.65 268.438 1340.19 268.438C1338.75 268.438 1337.44 268.74 1336.25 269.344C1335.08 269.948 1334.07 270.781 1333.22 271.844C1332.39 272.906 1331.73 274.125 1331.25 275.5C1330.79 276.854 1330.56 278.292 1330.56 279.812ZM1375.69 264.188V268.625H1357.41V264.188H1375.69ZM1363.59 255.969H1369.38V289.625C1369.38 290.771 1369.55 291.635 1369.91 292.219C1370.26 292.802 1370.72 293.188 1371.28 293.375C1371.84 293.562 1372.45 293.656 1373.09 293.656C1373.57 293.656 1374.07 293.615 1374.59 293.531C1375.14 293.427 1375.54 293.344 1375.81 293.281L1375.84 298C1375.39 298.146 1374.78 298.281 1374.03 298.406C1373.3 298.552 1372.42 298.625 1371.38 298.625C1369.96 298.625 1368.66 298.344 1367.47 297.781C1366.28 297.219 1365.33 296.281 1364.62 294.969C1363.94 293.635 1363.59 291.844 1363.59 289.594V255.969ZM1414.78 252.5V298H1408.84V252.5H1414.78ZM1429.41 252.5V257.438H1394.25V252.5H1429.41ZM1442.53 294.5L1451.94 264.188H1458.12L1444.56 303.219C1444.25 304.052 1443.83 304.948 1443.31 305.906C1442.81 306.885 1442.17 307.812 1441.38 308.688C1440.58 309.562 1439.62 310.271 1438.5 310.812C1437.4 311.375 1436.07 311.656 1434.53 311.656C1434.07 311.656 1433.49 311.594 1432.78 311.469C1432.07 311.344 1431.57 311.24 1431.28 311.156L1431.25 306.469C1431.42 306.49 1431.68 306.51 1432.03 306.531C1432.41 306.573 1432.67 306.594 1432.81 306.594C1434.12 306.594 1435.24 306.417 1436.16 306.062C1437.07 305.729 1437.84 305.156 1438.47 304.344C1439.11 303.552 1439.67 302.458 1440.12 301.062L1442.53 294.5ZM1435.62 264.188L1444.41 290.438L1445.91 296.531L1441.75 298.656L1429.31 264.188H1435.62ZM1469.12 270.688V311H1463.31V264.188H1468.62L1469.12 270.688ZM1491.91 280.812V281.469C1491.91 283.927 1491.61 286.208 1491.03 288.312C1490.45 290.396 1489.59 292.208 1488.47 293.75C1487.36 295.292 1486 296.49 1484.38 297.344C1482.75 298.198 1480.89 298.625 1478.78 298.625C1476.64 298.625 1474.74 298.271 1473.09 297.562C1471.45 296.854 1470.05 295.823 1468.91 294.469C1467.76 293.115 1466.84 291.49 1466.16 289.594C1465.49 287.698 1465.03 285.562 1464.78 283.188V279.688C1465.03 277.188 1465.5 274.948 1466.19 272.969C1466.88 270.99 1467.78 269.302 1468.91 267.906C1470.05 266.49 1471.44 265.417 1473.06 264.688C1474.69 263.938 1476.56 263.562 1478.69 263.562C1480.81 263.562 1482.7 263.979 1484.34 264.812C1485.99 265.625 1487.38 266.792 1488.5 268.312C1489.62 269.833 1490.47 271.656 1491.03 273.781C1491.61 275.885 1491.91 278.229 1491.91 280.812ZM1486.09 281.469V280.812C1486.09 279.125 1485.92 277.542 1485.56 276.062C1485.21 274.562 1484.66 273.25 1483.91 272.125C1483.18 270.979 1482.24 270.083 1481.09 269.438C1479.95 268.771 1478.58 268.438 1477 268.438C1475.54 268.438 1474.27 268.688 1473.19 269.188C1472.12 269.688 1471.22 270.365 1470.47 271.219C1469.72 272.052 1469.1 273.01 1468.62 274.094C1468.17 275.156 1467.82 276.26 1467.59 277.406V285.5C1468.01 286.958 1468.59 288.333 1469.34 289.625C1470.09 290.896 1471.09 291.927 1472.34 292.719C1473.59 293.49 1475.17 293.875 1477.06 293.875C1478.62 293.875 1479.97 293.552 1481.09 292.906C1482.24 292.24 1483.18 291.333 1483.91 290.188C1484.66 289.042 1485.21 287.729 1485.56 286.25C1485.92 284.75 1486.09 283.156 1486.09 281.469ZM1513.31 298.625C1510.96 298.625 1508.82 298.229 1506.91 297.438C1505.01 296.625 1503.38 295.49 1502 294.031C1500.65 292.573 1499.6 290.844 1498.88 288.844C1498.15 286.844 1497.78 284.656 1497.78 282.281V280.969C1497.78 278.219 1498.19 275.771 1499 273.625C1499.81 271.458 1500.92 269.625 1502.31 268.125C1503.71 266.625 1505.29 265.49 1507.06 264.719C1508.83 263.948 1510.67 263.562 1512.56 263.562C1514.98 263.562 1517.06 263.979 1518.81 264.812C1520.58 265.646 1522.03 266.812 1523.16 268.312C1524.28 269.792 1525.11 271.542 1525.66 273.562C1526.2 275.562 1526.47 277.75 1526.47 280.125V282.719H1501.22V278H1520.69V277.562C1520.6 276.062 1520.29 274.604 1519.75 273.188C1519.23 271.771 1518.4 270.604 1517.25 269.688C1516.1 268.771 1514.54 268.312 1512.56 268.312C1511.25 268.312 1510.04 268.594 1508.94 269.156C1507.83 269.698 1506.89 270.51 1506.09 271.594C1505.3 272.677 1504.69 274 1504.25 275.562C1503.81 277.125 1503.59 278.927 1503.59 280.969V282.281C1503.59 283.885 1503.81 285.396 1504.25 286.812C1504.71 288.208 1505.36 289.438 1506.22 290.5C1507.09 291.562 1508.15 292.396 1509.38 293C1510.62 293.604 1512.04 293.906 1513.62 293.906C1515.67 293.906 1517.4 293.49 1518.81 292.656C1520.23 291.823 1521.47 290.708 1522.53 289.312L1526.03 292.094C1525.3 293.198 1524.38 294.25 1523.25 295.25C1522.12 296.25 1520.74 297.062 1519.09 297.688C1517.47 298.312 1515.54 298.625 1513.31 298.625ZM1563.25 264.188V268.625H1544.97V264.188H1563.25ZM1551.16 255.969H1556.94V289.625C1556.94 290.771 1557.11 291.635 1557.47 292.219C1557.82 292.802 1558.28 293.188 1558.84 293.375C1559.41 293.562 1560.01 293.656 1560.66 293.656C1561.14 293.656 1561.64 293.615 1562.16 293.531C1562.7 293.427 1563.1 293.344 1563.38 293.281L1563.41 298C1562.95 298.146 1562.34 298.281 1561.59 298.406C1560.86 298.552 1559.98 298.625 1558.94 298.625C1557.52 298.625 1556.22 298.344 1555.03 297.781C1553.84 297.219 1552.9 296.281 1552.19 294.969C1551.5 293.635 1551.16 291.844 1551.16 289.594V255.969ZM1567.88 281.469V280.75C1567.88 278.312 1568.23 276.052 1568.94 273.969C1569.65 271.865 1570.67 270.042 1572 268.5C1573.33 266.938 1574.95 265.729 1576.84 264.875C1578.74 264 1580.86 263.562 1583.22 263.562C1585.59 263.562 1587.73 264 1589.62 264.875C1591.54 265.729 1593.17 266.938 1594.5 268.5C1595.85 270.042 1596.89 271.865 1597.59 273.969C1598.3 276.052 1598.66 278.312 1598.66 280.75V281.469C1598.66 283.906 1598.3 286.167 1597.59 288.25C1596.89 290.333 1595.85 292.156 1594.5 293.719C1593.17 295.26 1591.55 296.469 1589.66 297.344C1587.78 298.198 1585.66 298.625 1583.28 298.625C1580.91 298.625 1578.77 298.198 1576.88 297.344C1574.98 296.469 1573.35 295.26 1572 293.719C1570.67 292.156 1569.65 290.333 1568.94 288.25C1568.23 286.167 1567.88 283.906 1567.88 281.469ZM1573.66 280.75V281.469C1573.66 283.156 1573.85 284.75 1574.25 286.25C1574.65 287.729 1575.24 289.042 1576.03 290.188C1576.84 291.333 1577.85 292.24 1579.06 292.906C1580.27 293.552 1581.68 293.875 1583.28 293.875C1584.86 293.875 1586.25 293.552 1587.44 292.906C1588.65 292.24 1589.65 291.333 1590.44 290.188C1591.23 289.042 1591.82 287.729 1592.22 286.25C1592.64 284.75 1592.84 283.156 1592.84 281.469V280.75C1592.84 279.083 1592.64 277.51 1592.22 276.031C1591.82 274.531 1591.22 273.208 1590.41 272.062C1589.61 270.896 1588.61 269.979 1587.41 269.312C1586.22 268.646 1584.82 268.312 1583.22 268.312C1581.64 268.312 1580.24 268.646 1579.03 269.312C1577.84 269.979 1576.84 270.896 1576.03 272.062C1575.24 273.208 1574.65 274.531 1574.25 276.031C1573.85 277.51 1573.66 279.083 1573.66 280.75ZM1635.31 293.875C1636.69 293.875 1637.96 293.594 1639.12 293.031C1640.29 292.469 1641.25 291.698 1642 290.719C1642.75 289.719 1643.18 288.583 1643.28 287.312H1648.78C1648.68 289.312 1648 291.177 1646.75 292.906C1645.52 294.615 1643.91 296 1641.91 297.062C1639.91 298.104 1637.71 298.625 1635.31 298.625C1632.77 298.625 1630.55 298.177 1628.66 297.281C1626.78 296.385 1625.22 295.156 1623.97 293.594C1622.74 292.031 1621.81 290.24 1621.19 288.219C1620.58 286.177 1620.28 284.021 1620.28 281.75V280.438C1620.28 278.167 1620.58 276.021 1621.19 274C1621.81 271.958 1622.74 270.156 1623.97 268.594C1625.22 267.031 1626.78 265.802 1628.66 264.906C1630.55 264.01 1632.77 263.562 1635.31 263.562C1637.96 263.562 1640.27 264.104 1642.25 265.188C1644.23 266.25 1645.78 267.708 1646.91 269.562C1648.05 271.396 1648.68 273.479 1648.78 275.812H1643.28C1643.18 274.417 1642.78 273.156 1642.09 272.031C1641.43 270.906 1640.51 270.01 1639.34 269.344C1638.2 268.656 1636.85 268.312 1635.31 268.312C1633.54 268.312 1632.05 268.667 1630.84 269.375C1629.66 270.062 1628.71 271 1628 272.188C1627.31 273.354 1626.81 274.656 1626.5 276.094C1626.21 277.51 1626.06 278.958 1626.06 280.438V281.75C1626.06 283.229 1626.21 284.688 1626.5 286.125C1626.79 287.562 1627.28 288.865 1627.97 290.031C1628.68 291.198 1629.62 292.135 1630.81 292.844C1632.02 293.531 1633.52 293.875 1635.31 293.875ZM1653.75 281.469V280.75C1653.75 278.312 1654.1 276.052 1654.81 273.969C1655.52 271.865 1656.54 270.042 1657.88 268.5C1659.21 266.938 1660.82 265.729 1662.72 264.875C1664.61 264 1666.74 263.562 1669.09 263.562C1671.47 263.562 1673.6 264 1675.5 264.875C1677.42 265.729 1679.04 266.938 1680.38 268.5C1681.73 270.042 1682.76 271.865 1683.47 273.969C1684.18 276.052 1684.53 278.312 1684.53 280.75V281.469C1684.53 283.906 1684.18 286.167 1683.47 288.25C1682.76 290.333 1681.73 292.156 1680.38 293.719C1679.04 295.26 1677.43 296.469 1675.53 297.344C1673.66 298.198 1671.53 298.625 1669.16 298.625C1666.78 298.625 1664.65 298.198 1662.75 297.344C1660.85 296.469 1659.23 295.26 1657.88 293.719C1656.54 292.156 1655.52 290.333 1654.81 288.25C1654.1 286.167 1653.75 283.906 1653.75 281.469ZM1659.53 280.75V281.469C1659.53 283.156 1659.73 284.75 1660.12 286.25C1660.52 287.729 1661.11 289.042 1661.91 290.188C1662.72 291.333 1663.73 292.24 1664.94 292.906C1666.15 293.552 1667.55 293.875 1669.16 293.875C1670.74 293.875 1672.12 293.552 1673.31 292.906C1674.52 292.24 1675.52 291.333 1676.31 290.188C1677.1 289.042 1677.7 287.729 1678.09 286.25C1678.51 284.75 1678.72 283.156 1678.72 281.469V280.75C1678.72 279.083 1678.51 277.51 1678.09 276.031C1677.7 274.531 1677.09 273.208 1676.28 272.062C1675.49 270.896 1674.49 269.979 1673.28 269.312C1672.09 268.646 1670.7 268.312 1669.09 268.312C1667.51 268.312 1666.11 268.646 1664.91 269.312C1663.72 269.979 1662.72 270.896 1661.91 272.062C1661.11 273.208 1660.52 274.531 1660.12 276.031C1659.73 277.51 1659.53 279.083 1659.53 280.75ZM1697.56 271.406V298H1691.78V264.188H1697.25L1697.56 271.406ZM1696.19 279.812L1693.78 279.719C1693.8 277.406 1694.15 275.271 1694.81 273.312C1695.48 271.333 1696.42 269.615 1697.62 268.156C1698.83 266.698 1700.27 265.573 1701.94 264.781C1703.62 263.969 1705.49 263.562 1707.53 263.562C1709.2 263.562 1710.7 263.792 1712.03 264.25C1713.36 264.688 1714.5 265.396 1715.44 266.375C1716.4 267.354 1717.12 268.625 1717.62 270.188C1718.12 271.729 1718.38 273.615 1718.38 275.844V298H1712.56V275.781C1712.56 274.01 1712.3 272.594 1711.78 271.531C1711.26 270.448 1710.5 269.667 1709.5 269.188C1708.5 268.688 1707.27 268.438 1705.81 268.438C1704.38 268.438 1703.06 268.74 1701.88 269.344C1700.71 269.948 1699.7 270.781 1698.84 271.844C1698.01 272.906 1697.35 274.125 1696.88 275.5C1696.42 276.854 1696.19 278.292 1696.19 279.812ZM1741.31 264.188V268.625H1723.03V264.188H1741.31ZM1729.22 255.969H1735V289.625C1735 290.771 1735.18 291.635 1735.53 292.219C1735.89 292.802 1736.34 293.188 1736.91 293.375C1737.47 293.562 1738.07 293.656 1738.72 293.656C1739.2 293.656 1739.7 293.615 1740.22 293.531C1740.76 293.427 1741.17 293.344 1741.44 293.281L1741.47 298C1741.01 298.146 1740.41 298.281 1739.66 298.406C1738.93 298.552 1738.04 298.625 1737 298.625C1735.58 298.625 1734.28 298.344 1733.09 297.781C1731.91 297.219 1730.96 296.281 1730.25 294.969C1729.56 293.635 1729.22 291.844 1729.22 289.594V255.969ZM1754.38 264.188V298H1748.56V264.188H1754.38ZM1748.12 255.219C1748.12 254.281 1748.41 253.49 1748.97 252.844C1749.55 252.198 1750.41 251.875 1751.53 251.875C1752.64 251.875 1753.48 252.198 1754.06 252.844C1754.67 253.49 1754.97 254.281 1754.97 255.219C1754.97 256.115 1754.67 256.885 1754.06 257.531C1753.48 258.156 1752.64 258.469 1751.53 258.469C1750.41 258.469 1749.55 258.156 1748.97 257.531C1748.41 256.885 1748.12 256.115 1748.12 255.219ZM1769.44 271.406V298H1763.66V264.188H1769.12L1769.44 271.406ZM1768.06 279.812L1765.66 279.719C1765.68 277.406 1766.02 275.271 1766.69 273.312C1767.35 271.333 1768.29 269.615 1769.5 268.156C1770.71 266.698 1772.15 265.573 1773.81 264.781C1775.5 263.969 1777.36 263.562 1779.41 263.562C1781.07 263.562 1782.57 263.792 1783.91 264.25C1785.24 264.688 1786.38 265.396 1787.31 266.375C1788.27 267.354 1789 268.625 1789.5 270.188C1790 271.729 1790.25 273.615 1790.25 275.844V298H1784.44V275.781C1784.44 274.01 1784.18 272.594 1783.66 271.531C1783.14 270.448 1782.38 269.667 1781.38 269.188C1780.38 268.688 1779.15 268.438 1777.69 268.438C1776.25 268.438 1774.94 268.74 1773.75 269.344C1772.58 269.948 1771.57 270.781 1770.72 271.844C1769.89 272.906 1769.23 274.125 1768.75 275.5C1768.29 276.854 1768.06 278.292 1768.06 279.812ZM1819.72 290.188V264.188H1825.53V298H1820L1819.72 290.188ZM1820.81 283.062L1823.22 283C1823.22 285.25 1822.98 287.333 1822.5 289.25C1822.04 291.146 1821.29 292.792 1820.25 294.188C1819.21 295.583 1817.84 296.677 1816.16 297.469C1814.47 298.24 1812.42 298.625 1810 298.625C1808.35 298.625 1806.84 298.385 1805.47 297.906C1804.11 297.427 1802.95 296.688 1801.97 295.688C1800.99 294.688 1800.23 293.385 1799.69 291.781C1799.17 290.177 1798.91 288.25 1798.91 286V264.188H1804.69V286.062C1804.69 287.583 1804.85 288.844 1805.19 289.844C1805.54 290.823 1806.01 291.604 1806.59 292.188C1807.2 292.75 1807.86 293.146 1808.59 293.375C1809.34 293.604 1810.11 293.719 1810.91 293.719C1813.36 293.719 1815.31 293.25 1816.75 292.312C1818.19 291.354 1819.22 290.073 1819.84 288.469C1820.49 286.844 1820.81 285.042 1820.81 283.062ZM1848.38 298.625C1846.02 298.625 1843.89 298.229 1841.97 297.438C1840.07 296.625 1838.44 295.49 1837.06 294.031C1835.71 292.573 1834.67 290.844 1833.94 288.844C1833.21 286.844 1832.84 284.656 1832.84 282.281V280.969C1832.84 278.219 1833.25 275.771 1834.06 273.625C1834.88 271.458 1835.98 269.625 1837.38 268.125C1838.77 266.625 1840.35 265.49 1842.12 264.719C1843.9 263.948 1845.73 263.562 1847.62 263.562C1850.04 263.562 1852.12 263.979 1853.88 264.812C1855.65 265.646 1857.09 266.812 1858.22 268.312C1859.34 269.792 1860.18 271.542 1860.72 273.562C1861.26 275.562 1861.53 277.75 1861.53 280.125V282.719H1836.28V278H1855.75V277.562C1855.67 276.062 1855.35 274.604 1854.81 273.188C1854.29 271.771 1853.46 270.604 1852.31 269.688C1851.17 268.771 1849.6 268.312 1847.62 268.312C1846.31 268.312 1845.1 268.594 1844 269.156C1842.9 269.698 1841.95 270.51 1841.16 271.594C1840.36 272.677 1839.75 274 1839.31 275.562C1838.88 277.125 1838.66 278.927 1838.66 280.969V282.281C1838.66 283.885 1838.88 285.396 1839.31 286.812C1839.77 288.208 1840.43 289.438 1841.28 290.5C1842.16 291.562 1843.21 292.396 1844.44 293C1845.69 293.604 1847.1 293.906 1848.69 293.906C1850.73 293.906 1852.46 293.49 1853.88 292.656C1855.29 291.823 1856.53 290.708 1857.59 289.312L1861.09 292.094C1860.36 293.198 1859.44 294.25 1858.31 295.25C1857.19 296.25 1855.8 297.062 1854.16 297.688C1852.53 298.312 1850.6 298.625 1848.38 298.625ZM1868.38 294.938C1868.38 293.958 1868.68 293.135 1869.28 292.469C1869.91 291.781 1870.8 291.438 1871.97 291.438C1873.14 291.438 1874.02 291.781 1874.62 292.469C1875.25 293.135 1875.56 293.958 1875.56 294.938C1875.56 295.896 1875.25 296.708 1874.62 297.375C1874.02 298.042 1873.14 298.375 1871.97 298.375C1870.8 298.375 1869.91 298.042 1869.28 297.375C1868.68 296.708 1868.38 295.896 1868.38 294.938Z" fill="#0616B4"/>
<path d="M1610.3 389.421L1490.74 525.139H1902.5L2022.11 389.421H1610.3Z" fill="url(#paint2_linear_2_85)"/>
<path d="M1672.61 389L1553 524.719H1575.02L1694.58 389H1672.61Z" fill="white"/>
<path d="M1730.03 479H1720.12L1720.19 471.688H1730.03C1732.49 471.688 1734.56 471.135 1736.25 470.031C1737.94 468.906 1739.21 467.271 1740.06 465.125C1740.94 462.979 1741.38 460.385 1741.38 457.344V455.125C1741.38 452.792 1741.12 450.74 1740.62 448.969C1740.15 447.198 1739.43 445.708 1738.47 444.5C1737.51 443.292 1736.33 442.385 1734.94 441.781C1733.54 441.156 1731.94 440.844 1730.12 440.844H1719.94V433.5H1730.12C1733.17 433.5 1735.95 434.021 1738.47 435.062C1741.01 436.083 1743.21 437.552 1745.06 439.469C1746.92 441.385 1748.34 443.677 1749.34 446.344C1750.36 448.99 1750.88 451.938 1750.88 455.188V457.344C1750.88 460.573 1750.36 463.521 1749.34 466.188C1748.34 468.854 1746.92 471.146 1745.06 473.062C1743.23 474.958 1741.03 476.427 1738.47 477.469C1735.93 478.49 1733.11 479 1730.03 479ZM1725.44 433.5V479H1716.06V433.5H1725.44ZM1761.97 433.5H1769.91L1781.59 466.906L1793.28 433.5H1801.22L1784.78 479H1778.41L1761.97 433.5ZM1757.69 433.5H1765.59L1767.03 466.062V479H1757.69V433.5ZM1797.59 433.5H1805.53V479H1796.16V466.062L1797.59 433.5ZM1837.44 467.094C1837.44 466.281 1837.31 465.552 1837.06 464.906C1836.83 464.24 1836.4 463.635 1835.75 463.094C1835.1 462.531 1834.2 461.979 1833.03 461.438C1831.86 460.896 1830.35 460.333 1828.5 459.75C1826.44 459.083 1824.48 458.333 1822.62 457.5C1820.79 456.667 1819.17 455.698 1817.75 454.594C1816.35 453.469 1815.25 452.167 1814.44 450.688C1813.65 449.208 1813.25 447.49 1813.25 445.531C1813.25 443.635 1813.67 441.917 1814.5 440.375C1815.33 438.812 1816.5 437.479 1818 436.375C1819.5 435.25 1821.27 434.385 1823.31 433.781C1825.38 433.177 1827.64 432.875 1830.09 432.875C1833.45 432.875 1836.38 433.479 1838.88 434.688C1841.38 435.896 1843.31 437.552 1844.69 439.656C1846.08 441.76 1846.78 444.167 1846.78 446.875H1837.47C1837.47 445.542 1837.19 444.375 1836.62 443.375C1836.08 442.354 1835.25 441.552 1834.12 440.969C1833.02 440.385 1831.62 440.094 1829.94 440.094C1828.31 440.094 1826.96 440.344 1825.88 440.844C1824.79 441.323 1823.98 441.979 1823.44 442.812C1822.9 443.625 1822.62 444.542 1822.62 445.562C1822.62 446.333 1822.81 447.031 1823.19 447.656C1823.58 448.281 1824.17 448.865 1824.94 449.406C1825.71 449.948 1826.66 450.458 1827.78 450.938C1828.91 451.417 1830.21 451.885 1831.69 452.344C1834.17 453.094 1836.34 453.938 1838.22 454.875C1840.11 455.812 1841.7 456.865 1842.97 458.031C1844.24 459.198 1845.2 460.521 1845.84 462C1846.49 463.479 1846.81 465.156 1846.81 467.031C1846.81 469.01 1846.43 470.781 1845.66 472.344C1844.89 473.906 1843.77 475.229 1842.31 476.312C1840.85 477.396 1839.11 478.219 1837.09 478.781C1835.07 479.344 1832.81 479.625 1830.31 479.625C1828.06 479.625 1825.84 479.333 1823.66 478.75C1821.47 478.146 1819.48 477.24 1817.69 476.031C1815.92 474.823 1814.5 473.281 1813.44 471.406C1812.38 469.531 1811.84 467.312 1811.84 464.75H1821.25C1821.25 466.167 1821.47 467.365 1821.91 468.344C1822.34 469.323 1822.96 470.115 1823.75 470.719C1824.56 471.323 1825.52 471.76 1826.62 472.031C1827.75 472.302 1828.98 472.438 1830.31 472.438C1831.94 472.438 1833.27 472.208 1834.31 471.75C1835.38 471.292 1836.16 470.656 1836.66 469.844C1837.18 469.031 1837.44 468.115 1837.44 467.094Z" fill="white"/>
<path d="M277.068 494.805C397.314 494.805 494.792 397.327 494.792 277.08C494.792 156.834 397.314 59.3555 277.068 59.3555C156.821 59.3555 59.3427 156.834 59.3427 277.08C59.3427 397.327 156.821 494.805 277.068 494.805Z" fill="url(#paint3_linear_2_85)"/>
<path d="M415.6 415.6C492.11 339.09 492.11 215.043 415.6 138.533C339.09 62.0235 215.043 62.0235 138.533 138.533C62.0235 215.043 62.0235 339.09 138.533 415.6C215.043 492.11 339.09 492.11 415.6 415.6Z" fill="url(#paint4_linear_2_85)"/>
<path d="M277.068 425.926C247.614 425.937 218.819 417.211 194.325 400.854C169.83 384.497 150.738 361.243 139.461 334.033C128.185 306.823 125.232 276.881 130.976 247.992C136.719 219.104 150.902 192.568 171.728 171.741C192.555 150.914 219.091 136.732 247.98 130.989C276.868 125.245 306.811 128.198 334.02 139.474C361.23 150.75 384.484 169.843 400.841 194.337C417.198 218.832 425.924 247.627 425.913 277.08C425.858 316.54 410.158 354.367 382.256 382.269C354.354 410.171 316.527 425.871 277.068 425.926V425.926ZM277.068 144.343C250.815 144.343 225.151 152.128 203.323 166.713C181.494 181.299 164.481 202.029 154.434 226.284C144.388 250.539 141.759 277.228 146.881 302.976C152.002 328.725 164.644 352.376 183.208 370.94C201.772 389.504 225.423 402.146 251.172 407.267C276.92 412.389 303.609 409.76 327.864 399.714C352.119 389.667 372.849 372.654 387.435 350.825C402.02 328.997 409.805 303.333 409.805 277.08C409.763 241.889 395.765 208.151 370.881 183.267C345.997 158.383 312.259 144.385 277.068 144.343Z" fill="white"/>
<path d="M277 211.375V244.188C277 247.917 278.482 251.494 281.119 254.131C283.756 256.768 287.333 258.25 291.062 258.25H323.875V328.562C323.875 332.292 322.393 335.869 319.756 338.506C317.119 341.143 313.542 342.625 309.812 342.625H244.188C240.458 342.625 236.881 341.143 234.244 338.506C231.607 335.869 230.125 332.292 230.125 328.562V225.438C230.125 221.708 231.607 218.131 234.244 215.494C236.881 212.857 240.458 211.375 244.188 211.375H277ZM286.375 213.719V244.188C286.375 245.431 286.869 246.623 287.748 247.502C288.627 248.381 289.819 248.875 291.062 248.875H321.531L286.375 213.719Z" fill="white"/>
<defs>
<linearGradient id="paint0_linear_2_85" x1="1178.14" y1="487.588" x2="1178.14" y2="48.4771" gradientUnits="userSpaceOnUse">
<stop stop-color="#EBEBEB"/>
<stop offset="0.99" stop-color="white"/>
</linearGradient>
<linearGradient id="paint1_linear_2_85" x1="1172.97" y1="112.754" x2="1172.97" y2="489.366" gradientUnits="userSpaceOnUse">
<stop stop-color="#EBEBEB"/>
<stop offset="0.99" stop-color="white"/>
</linearGradient>
<linearGradient id="paint2_linear_2_85" x1="1490.74" y1="457.306" x2="2022.06" y2="457.306" gradientUnits="userSpaceOnUse">
<stop offset="0.04" stop-color="#007BFF"/>
<stop offset="1" stop-color="#0609AA"/>
</linearGradient>
<linearGradient id="paint3_linear_2_85" x1="277.068" y1="70.0247" x2="277.068" y2="530.003" gradientUnits="userSpaceOnUse">
<stop offset="0.01" stop-color="white"/>
<stop offset="1" stop-color="#EBEBEB"/>
</linearGradient>
<linearGradient id="paint4_linear_2_85" x1="380.959" y1="109.472" x2="159.626" y2="466.472" gradientUnits="userSpaceOnUse">
<stop offset="0.04" stop-color="#007BFF"/>
<stop offset="1" stop-color="#0609AA"/>
</linearGradient>
</defs>
</svg>
