<svg width="1296" height="328" viewBox="0 0 1296 328" fill="none" xmlns="http://www.w3.org/2000/svg">
<g filter="url(#filter0_d_221_2)">
<path d="M379.553 132.555C379.553 138.365 378.601 143.443 376.696 147.789C374.792 152.135 371.716 155.748 367.468 158.629C363.22 161.51 357.678 163.658 350.842 165.074C344.006 166.49 335.681 167.198 325.866 167.198H313.415V214H299.206V98.3506H328.283C332.238 98.3506 336.242 98.5215 340.295 98.8633C344.396 99.2051 348.352 99.8398 352.16 100.768C355.969 101.646 359.533 102.892 362.854 104.503C366.174 106.065 369.055 108.116 371.496 110.655C373.986 113.194 375.939 116.271 377.355 119.884C378.82 123.448 379.553 127.672 379.553 132.555ZM324.548 156.578C331.921 156.578 338.171 156.163 343.298 155.333C348.474 154.454 352.648 153.111 355.822 151.305C358.996 149.498 361.291 147.203 362.707 144.42C364.172 141.588 364.904 138.219 364.904 134.312C364.904 128.453 363.952 123.839 362.048 120.47C360.192 117.101 357.604 114.562 354.284 112.853C351.013 111.095 347.106 109.996 342.565 109.557C338.024 109.068 333.117 108.824 327.844 108.824H313.415V156.578H324.548ZM449.792 98.3506L487.585 214H473.01L464.001 185.948H413.61L404.602 214H390.026L427.819 98.3506H449.792ZM415.588 178.478H462.023L438.806 107.359L415.588 178.478ZM583.752 132.555C583.752 138.365 582.8 143.443 580.896 147.789C578.991 152.135 575.915 155.748 571.667 158.629C567.419 161.51 561.877 163.658 555.041 165.074C548.205 166.49 539.88 167.198 530.065 167.198H517.614V214H503.405V98.3506H532.482C536.438 98.3506 540.441 98.5215 544.494 98.8633C548.596 99.2051 552.551 99.8398 556.359 100.768C560.168 101.646 563.732 102.892 567.053 104.503C570.373 106.065 573.254 108.116 575.695 110.655C578.186 113.194 580.139 116.271 581.555 119.884C583.02 123.448 583.752 127.672 583.752 132.555ZM528.747 156.578C536.12 156.578 542.37 156.163 547.497 155.333C552.673 154.454 556.848 153.111 560.021 151.305C563.195 149.498 565.49 147.203 566.906 144.42C568.371 141.588 569.104 138.219 569.104 134.312C569.104 128.453 568.151 123.839 566.247 120.47C564.392 117.101 561.804 114.562 558.483 112.853C555.212 111.095 551.306 109.996 546.765 109.557C542.224 109.068 537.316 108.824 532.043 108.824H517.614V156.578H528.747Z" fill="#140279"/>
<path d="M601 98V214H680V201.539H616.649V110.461H678.99V98H601Z" fill="#130177"/>
<path d="M618.769 145.85H672.075V161.8H618.769V145.85Z" fill="#B90F0F"/>
</g>
<g filter="url(#filter1_d_221_2)">
<path d="M745.388 150.865C750.905 150.865 755.52 150.255 759.23 149.034C762.99 147.813 765.993 146.178 768.239 144.127C770.485 142.027 772.072 139.61 773 136.876C773.977 134.093 774.465 131.139 774.465 128.014C774.465 124.791 773.928 122.081 772.854 119.884C771.828 117.638 770.412 115.807 768.605 114.391C766.799 112.975 764.699 111.9 762.307 111.168C759.963 110.387 757.473 109.825 754.836 109.483C752.199 109.142 749.489 108.946 746.706 108.897C743.972 108.849 741.335 108.824 738.796 108.824H723.415V150.865H745.388ZM759.011 155.626C764.382 156.212 768.972 157.262 772.78 158.775C776.589 160.289 779.689 162.267 782.082 164.708C784.523 167.149 786.306 170.055 787.429 173.424C788.552 176.793 789.113 180.626 789.113 184.923V214H774.904V183.824C774.904 179.918 774.465 176.646 773.586 174.01C772.707 171.324 771.462 169.127 769.851 167.418C768.239 165.66 766.286 164.317 763.991 163.39C761.696 162.413 759.133 161.705 756.301 161.266C753.469 160.777 750.393 160.509 747.072 160.46C743.752 160.362 740.261 160.313 736.599 160.313H723.415V214H709.206V98.3506H743.337C750.417 98.3506 756.789 98.8877 762.453 99.9619C768.166 100.987 773 102.647 776.955 104.942C780.91 107.188 783.938 110.118 786.037 113.731C788.186 117.345 789.26 121.715 789.26 126.842C789.26 131.725 788.503 135.973 786.989 139.586C785.476 143.199 783.352 146.202 780.617 148.595C777.932 150.938 774.733 152.696 771.022 153.868C767.36 155.04 763.356 155.626 759.011 155.626Z" fill="#140279"/>
</g>
<g filter="url(#filter2_d_221_2)">
<path d="M843.646 98.3506C846.674 98.3506 849.994 98.4238 853.607 98.5703C857.27 98.668 860.932 98.9854 864.594 99.5225C868.256 100.06 871.796 100.89 875.214 102.013C878.681 103.136 881.732 104.674 884.369 106.627C887.055 108.531 889.203 110.948 890.814 113.878C892.426 116.808 893.231 120.372 893.231 124.571C893.231 129.747 892.67 133.922 891.547 137.096C890.424 140.27 888.812 142.784 886.713 144.64C884.613 146.495 882.099 147.862 879.169 148.741C876.239 149.62 872.992 150.328 869.428 150.865C871.479 151.109 873.627 151.451 875.873 151.891C878.168 152.281 880.414 152.94 882.611 153.868C884.809 154.747 886.908 155.943 888.91 157.457C890.961 158.922 892.743 160.826 894.257 163.17C895.771 165.465 896.967 168.248 897.846 171.52C898.773 174.791 899.237 178.673 899.237 183.165C899.237 187.804 898.676 191.783 897.553 195.104C896.479 198.424 894.892 201.231 892.792 203.526C890.741 205.772 888.202 207.604 885.175 209.02C882.196 210.387 878.803 211.437 874.994 212.169C871.186 212.901 867.011 213.39 862.47 213.634C857.929 213.878 853.095 214 847.968 214H817.206V98.3506H843.646ZM847.968 203.526C855.194 203.526 861.225 203.087 866.059 202.208C870.941 201.329 874.848 199.962 877.777 198.106C880.707 196.251 882.782 193.883 884.003 191.002C885.272 188.072 885.907 184.581 885.907 180.528C885.907 175.987 885.199 172.179 883.783 169.103C882.416 165.978 880.268 163.487 877.338 161.632C874.457 159.776 870.795 158.458 866.352 157.677C861.957 156.847 856.732 156.432 850.678 156.432H831.415V203.526H847.968ZM831.415 146.983H850.385C856.439 146.983 861.444 146.593 865.399 145.812C869.403 145.03 872.553 143.785 874.848 142.076C877.191 140.318 878.827 138.072 879.755 135.338C880.683 132.555 881.146 129.186 881.146 125.23C881.146 122.301 880.463 119.811 879.096 117.76C877.777 115.66 875.629 113.951 872.65 112.633C869.721 111.314 865.888 110.362 861.151 109.776C856.415 109.142 850.678 108.824 843.939 108.824H831.415V146.983ZM970.429 98.3506L1008.22 214H993.646L984.638 185.948H934.247L925.238 214H910.663L948.456 98.3506H970.429ZM936.225 178.478H982.66L959.442 107.359L936.225 178.478ZM1100.29 214L1038.25 111.168V214H1024.04V98.3506H1043.23L1104.32 200.45V98.3506H1118.52V214H1100.29ZM1155.29 214H1141.08V98.3506H1155.29V151.451H1171.62L1207.51 98.3506H1222.67L1182.9 155.553L1227.58 214H1211.69L1171.04 159.288H1155.29V214Z" fill="#BA1C26"/>
</g>
<g filter="url(#filter3_d_221_2)">
<path fill-rule="evenodd" clip-rule="evenodd" d="M107.246 74.0007L215.526 85.2602C234.458 121.806 238.84 159.564 228.673 198.534L160.961 256.369C158.248 194.155 148.849 132.567 107.246 74.0007Z" fill="#140279"/>
</g>
<g filter="url(#filter4_d_221_2)">
<path fill-rule="evenodd" clip-rule="evenodd" d="M108.111 93.929L60.8945 114.289C122.113 146.196 141.9 201.925 154.468 261.807C150.148 202.94 140.368 145.502 108.111 93.929Z" fill="#E6A012"/>
</g>
<g filter="url(#filter5_d_221_2)">
<path fill-rule="evenodd" clip-rule="evenodd" d="M44 153.706L60.4605 130.748C109.395 160.754 132.576 212.831 147.53 271.965C125.873 210.746 93.5429 167.631 44 153.706" fill="#BA1C26"/>
</g>
<path d="M143.252 118.883C142.652 118.852 142.138 118.376 142.107 117.82C142.077 117.264 142.54 116.838 143.141 116.868C156.306 117.523 168.513 116.417 179.818 113.649C191.115 110.884 201.517 106.458 211.078 100.478C211.551 100.18 212.237 100.321 212.611 100.792C212.985 101.262 212.906 101.887 212.434 102.183C202.695 108.277 192.094 112.787 180.576 115.605C169.066 118.422 156.643 119.55 143.252 118.883" fill="white"/>
<path d="M150.35 136.081C149.749 136.046 149.238 135.568 149.211 135.012C149.184 134.455 149.65 134.032 150.251 134.065C163.411 134.798 175.625 133.764 186.946 131.063C198.259 128.364 208.687 124 218.283 118.076C218.758 117.781 219.443 117.925 219.815 118.399C220.185 118.871 220.103 119.496 219.628 119.789C209.854 125.825 199.226 130.273 187.692 133.023C176.166 135.772 163.737 136.828 150.35 136.081" fill="white"/>
<path d="M157.138 154.621C156.537 154.589 156.024 154.113 155.994 153.557C155.965 153.001 156.429 152.575 157.03 152.606C170.194 153.28 182.402 152.191 193.711 149.439C205.012 146.69 215.421 142.278 224.99 136.311C225.463 136.015 226.149 136.156 226.523 136.627C226.895 137.098 226.816 137.723 226.343 138.019C216.595 144.098 205.988 148.594 194.466 151.396C182.952 154.196 170.528 155.308 157.138 154.621" fill="white"/>
<defs>
<filter id="filter0_d_221_2" x="284" y="87" width="400" height="181" filterUnits="userSpaceOnUse" color-interpolation-filters="sRGB">
<feFlood flood-opacity="0" result="BackgroundImageFix"/>
<feColorMatrix in="SourceAlpha" type="matrix" values="0 0 0 0 0 0 0 0 0 0 0 0 0 0 0 0 0 0 127 0" result="hardAlpha"/>
<feOffset dy="8"/>
<feGaussianBlur stdDeviation="2"/>
<feComposite in2="hardAlpha" operator="out"/>
<feColorMatrix type="matrix" values="0 0 0 0 0 0 0 0 0 0 0 0 0 0 0 0 0 0 0.25 0"/>
<feBlend mode="normal" in2="BackgroundImageFix" result="effect1_dropShadow_221_2"/>
<feBlend mode="normal" in="SourceGraphic" in2="effect1_dropShadow_221_2" result="shape"/>
</filter>
<filter id="filter1_d_221_2" x="705.207" y="98.3516" width="88.0508" height="128.648" filterUnits="userSpaceOnUse" color-interpolation-filters="sRGB">
<feFlood flood-opacity="0" result="BackgroundImageFix"/>
<feColorMatrix in="SourceAlpha" type="matrix" values="0 0 0 0 0 0 0 0 0 0 0 0 0 0 0 0 0 0 127 0" result="hardAlpha"/>
<feOffset dy="9"/>
<feGaussianBlur stdDeviation="2"/>
<feComposite in2="hardAlpha" operator="out"/>
<feColorMatrix type="matrix" values="0 0 0 0 0 0 0 0 0 0 0 0 0 0 0 0 0 0 0.25 0"/>
<feBlend mode="normal" in2="BackgroundImageFix" result="effect1_dropShadow_221_2"/>
<feBlend mode="normal" in="SourceGraphic" in2="effect1_dropShadow_221_2" result="shape"/>
</filter>
<filter id="filter2_d_221_2" x="813.207" y="98.3516" width="418.375" height="129.648" filterUnits="userSpaceOnUse" color-interpolation-filters="sRGB">
<feFlood flood-opacity="0" result="BackgroundImageFix"/>
<feColorMatrix in="SourceAlpha" type="matrix" values="0 0 0 0 0 0 0 0 0 0 0 0 0 0 0 0 0 0 127 0" result="hardAlpha"/>
<feOffset dy="10"/>
<feGaussianBlur stdDeviation="2"/>
<feComposite in2="hardAlpha" operator="out"/>
<feColorMatrix type="matrix" values="0 0 0 0 0 0 0 0 0 0 0 0 0 0 0 0 0 0 0.25 0"/>
<feBlend mode="normal" in2="BackgroundImageFix" result="effect1_dropShadow_221_2"/>
<feBlend mode="normal" in="SourceGraphic" in2="effect1_dropShadow_221_2" result="shape"/>
</filter>
<filter id="filter3_d_221_2" x="103.246" y="74" width="134.754" height="190.369" filterUnits="userSpaceOnUse" color-interpolation-filters="sRGB">
<feFlood flood-opacity="0" result="BackgroundImageFix"/>
<feColorMatrix in="SourceAlpha" type="matrix" values="0 0 0 0 0 0 0 0 0 0 0 0 0 0 0 0 0 0 127 0" result="hardAlpha"/>
<feOffset dy="4"/>
<feGaussianBlur stdDeviation="2"/>
<feComposite in2="hardAlpha" operator="out"/>
<feColorMatrix type="matrix" values="0 0 0 0 0 0 0 0 0 0 0 0 0 0 0 0 0 0 0.25 0"/>
<feBlend mode="normal" in2="BackgroundImageFix" result="effect1_dropShadow_221_2"/>
<feBlend mode="normal" in="SourceGraphic" in2="effect1_dropShadow_221_2" result="shape"/>
</filter>
<filter id="filter4_d_221_2" x="56.8945" y="93.9297" width="101.574" height="175.877" filterUnits="userSpaceOnUse" color-interpolation-filters="sRGB">
<feFlood flood-opacity="0" result="BackgroundImageFix"/>
<feColorMatrix in="SourceAlpha" type="matrix" values="0 0 0 0 0 0 0 0 0 0 0 0 0 0 0 0 0 0 127 0" result="hardAlpha"/>
<feOffset dy="4"/>
<feGaussianBlur stdDeviation="2"/>
<feComposite in2="hardAlpha" operator="out"/>
<feColorMatrix type="matrix" values="0 0 0 0 0 0 0 0 0 0 0 0 0 0 0 0 0 0 0.25 0"/>
<feBlend mode="normal" in2="BackgroundImageFix" result="effect1_dropShadow_221_2"/>
<feBlend mode="normal" in="SourceGraphic" in2="effect1_dropShadow_221_2" result="shape"/>
</filter>
<filter id="filter5_d_221_2" x="40" y="130.748" width="111.531" height="149.217" filterUnits="userSpaceOnUse" color-interpolation-filters="sRGB">
<feFlood flood-opacity="0" result="BackgroundImageFix"/>
<feColorMatrix in="SourceAlpha" type="matrix" values="0 0 0 0 0 0 0 0 0 0 0 0 0 0 0 0 0 0 127 0" result="hardAlpha"/>
<feOffset dy="4"/>
<feGaussianBlur stdDeviation="2"/>
<feComposite in2="hardAlpha" operator="out"/>
<feColorMatrix type="matrix" values="0 0 0 0 0 0 0 0 0 0 0 0 0 0 0 0 0 0 0.25 0"/>
<feBlend mode="normal" in2="BackgroundImageFix" result="effect1_dropShadow_221_2"/>
<feBlend mode="normal" in="SourceGraphic" in2="effect1_dropShadow_221_2" result="shape"/>
</filter>
</defs>
</svg>
