<svg width="30" height="30" viewBox="0 0 30 30" fill="none" xmlns="http://www.w3.org/2000/svg">
<path d="M17.6713 14.6395C17.7175 14.6395 17.7626 14.6259 17.8011 14.6004C17.8396 14.5748 17.8696 14.5385 17.8875 14.4959C17.9054 14.4534 17.9104 14.4065 17.9017 14.3611C17.8931 14.3158 17.8712 14.274 17.8389 14.241L13.2451 9.56992C13.2125 9.53677 13.1707 9.51409 13.1251 9.50476C13.0795 9.49543 13.0322 9.49988 12.9892 9.51754C12.9461 9.53519 12.9093 9.56526 12.8834 9.60391C12.8575 9.64256 12.8437 9.68804 12.8438 9.73457V13.9363C12.8438 14.1228 12.9178 14.3016 13.0497 14.4335C13.1816 14.5654 13.3604 14.6395 13.5469 14.6395H17.6713Z" fill="#3A3A3A"/>
<path d="M11.7305 15.7527C11.4898 15.5153 11.2986 15.2325 11.1678 14.9208C11.0371 14.609 10.9694 14.2744 10.9688 13.9363V8.5457H6.75C5.75634 8.54864 4.80422 8.94467 4.10159 9.6473C3.39897 10.3499 3.00294 11.302 3 12.2957V25.4207C3 26.4153 3.39509 27.3691 4.09835 28.0724C4.80161 28.7756 5.75544 29.1707 6.75 29.1707H15.1875C16.1821 29.1707 17.1359 28.7756 17.8391 28.0724C18.5424 27.3691 18.9375 26.4153 18.9375 25.4207V16.5145H13.5469C13.2088 16.514 12.8741 16.4464 12.5623 16.3156C12.2505 16.1849 11.9678 15.9936 11.7305 15.7527ZM21.9844 7.13945H26.1088C26.155 7.13949 26.2001 7.12589 26.2386 7.10036C26.2771 7.07483 26.3071 7.0385 26.325 6.99594C26.3429 6.95338 26.3479 6.90648 26.3392 6.86113C26.3306 6.81577 26.3087 6.77399 26.2764 6.74101L21.6826 2.06992C21.65 2.03677 21.6082 2.01409 21.5626 2.00476C21.517 1.99543 21.4697 1.99988 21.4267 2.01754C21.3836 2.03519 21.3468 2.06526 21.3209 2.10391C21.295 2.14256 21.2812 2.18804 21.2812 2.23457V6.43633C21.2812 6.62281 21.3553 6.80165 21.4872 6.93351C21.6191 7.06537 21.7979 7.13945 21.9844 7.13945Z" fill="#3A3A3A"/>
<path d="M21.7969 8.90625C21.1147 8.90104 20.462 8.62774 19.9796 8.14538C19.4973 7.66301 19.224 7.01028 19.2187 6.32812V0.9375H12.8906C11.9586 0.938586 11.065 1.30933 10.4059 1.9684C9.74683 2.62747 9.37609 3.52106 9.375 4.45312V6.5625H11.843C12.158 6.56376 12.4696 6.62725 12.76 6.74932C13.0504 6.87139 13.3139 7.04964 13.5352 7.27383L19.9312 13.7777C20.3775 14.2305 20.6266 14.8413 20.6244 15.477V23.4375H23.7328C25.6377 23.4375 27.1869 21.8602 27.1869 19.9219V8.90625H21.7969Z" fill="#3A3A3A"/>
<path d="M7.55466 25.529C7.35976 25.4511 7.20272 25.3005 7.11666 25.109C6.92166 24.721 6.98666 24.333 7.19666 24.007C7.39466 23.7 7.72266 23.439 8.09366 23.22C8.5636 22.9535 9.06035 22.7373 9.57566 22.575C9.97584 21.8556 10.3305 21.1118 10.6377 20.348C10.454 19.9308 10.3101 19.4972 10.2077 19.053C10.1217 18.653 10.0887 18.257 10.1617 17.917C10.2367 17.563 10.4357 17.245 10.8117 17.094C11.0037 17.017 11.2117 16.974 11.4137 17.017C11.5153 17.0387 11.6108 17.0827 11.6933 17.1458C11.7758 17.2089 11.8432 17.2896 11.8907 17.382C11.9787 17.546 12.0107 17.738 12.0177 17.92C12.0247 18.107 12.0057 18.315 11.9707 18.534C11.8867 19.044 11.7007 19.668 11.4507 20.328C11.7266 20.9181 12.0545 21.4823 12.4307 22.014C12.8758 21.9789 13.3234 21.9957 13.7647 22.064C14.1287 22.129 14.4987 22.259 14.7247 22.529C14.8447 22.673 14.9177 22.849 14.9247 23.047C14.9317 23.239 14.8777 23.429 14.7867 23.61C14.7078 23.7778 14.5856 23.9214 14.4327 24.026C14.2815 24.1247 14.103 24.173 13.9227 24.164C13.5917 24.15 13.2687 23.968 12.9897 23.747C12.6504 23.4665 12.3447 23.1477 12.0787 22.797C11.4024 22.8737 10.7342 23.0096 10.0817 23.203C9.78251 23.733 9.44106 24.238 9.06066 24.713C8.77066 25.063 8.45266 25.368 8.13466 25.5C7.95195 25.5827 7.74471 25.5931 7.55466 25.529V25.529ZM8.93366 23.628C8.76766 23.704 8.61366 23.784 8.47466 23.866C8.14666 24.06 7.93366 24.249 7.82766 24.413C7.73366 24.558 7.73166 24.663 7.78766 24.774C7.79766 24.796 7.80766 24.81 7.81366 24.818C7.82559 24.8149 7.83728 24.8108 7.84866 24.806C7.98566 24.75 8.20366 24.571 8.48366 24.234C8.64291 24.0391 8.79307 23.8369 8.93366 23.628V23.628ZM10.5737 22.298C10.9076 22.22 11.2445 22.1557 11.5837 22.105C11.4015 21.8265 11.2313 21.5402 11.0737 21.247C10.9168 21.6017 10.7501 21.9518 10.5737 22.297V22.298ZM13.0197 22.748C13.1697 22.91 13.3157 23.048 13.4547 23.158C13.6947 23.348 13.8617 23.411 13.9527 23.414C13.977 23.4172 14.0017 23.4119 14.0227 23.399C14.0643 23.3662 14.0966 23.3231 14.1167 23.274C14.1522 23.2131 14.1725 23.1445 14.1757 23.074C14.1751 23.0506 14.1658 23.0281 14.1497 23.011C14.0977 22.949 13.9497 22.859 13.6317 22.802C13.4294 22.7682 13.2247 22.7505 13.0197 22.749V22.748ZM11.0297 19.242C11.1138 18.9706 11.1806 18.694 11.2297 18.414C11.2607 18.226 11.2727 18.071 11.2677 17.949C11.2679 17.8817 11.2571 17.8148 11.2357 17.751C11.1856 17.7572 11.1368 17.7707 11.0907 17.791C11.0037 17.826 10.9327 17.897 10.8947 18.074C10.8547 18.266 10.8647 18.543 10.9407 18.896C10.9647 19.007 10.9947 19.123 11.0307 19.242H11.0297Z" fill="white"/>
<path fill-rule="evenodd" clip-rule="evenodd" d="M19.2984 14.0068C19.2522 14.0176 19.2079 14.0411 19.1681 14.0758C19.1283 14.1106 19.0938 14.156 19.0665 14.2094C19.0392 14.2629 19.0198 14.3233 19.0092 14.3873C18.9986 14.4513 18.9972 14.5175 19.0049 14.5823L19.7191 20.5821C19.7312 20.6839 19.7656 20.778 19.8174 20.8514C19.8692 20.9249 19.936 20.974 20.0086 20.9922C20.0812 21.0104 20.156 20.9966 20.2228 20.9529C20.2896 20.9091 20.3451 20.8375 20.3816 20.7478L21.5 18.0077L22.6184 20.7478C22.6549 20.8375 22.7104 20.9091 22.7772 20.9529C22.844 20.9966 22.9188 21.0104 22.9914 20.9922C23.064 20.974 23.1308 20.9249 23.1826 20.8514C23.2344 20.778 23.2688 20.6839 23.2809 20.5821L23.9951 14.5823C24.0107 14.4515 23.9885 14.3174 23.9335 14.2094C23.8784 14.1015 23.795 14.0286 23.7016 14.0068C23.6081 13.985 23.5123 14.0161 23.4352 14.0931C23.3581 14.1702 23.3061 14.287 23.2905 14.4178L22.7411 19.0326L21.81 16.752C21.7788 16.6754 21.7336 16.6118 21.6792 16.5676C21.6247 16.5233 21.5629 16.5 21.4999 16.5C21.437 16.5 21.3751 16.5233 21.3207 16.5676C21.2662 16.6118 21.2211 16.6754 21.1898 16.752L20.2588 19.0329L19.7095 14.4178C19.7018 14.353 19.685 14.291 19.6602 14.2353C19.6354 14.1796 19.603 14.1313 19.5648 14.0931C19.5266 14.0549 19.4834 14.0277 19.4377 14.0129C19.392 13.9981 19.3447 13.996 19.2984 14.0068V14.0068Z" fill="white"/>
</svg>
