<svg width="16" height="11" viewBox="0 0 16 11" fill="none" xmlns="http://www.w3.org/2000/svg">
<path d="M8 0C6.68024 0.00413852 5.40548 0.480135 4.406 1.342C3.64 2.002 3.085 2.862 2.942 3.725C1.266 4.095 0 5.555 0 7.318C0 9.366 1.708 11 3.781 11H12.687C14.502 11 16 9.57 16 7.773C16 6.137 14.758 4.804 13.166 4.579C12.923 1.999 10.69 0 8 0ZM10.354 5.146C10.4005 5.19249 10.4374 5.24768 10.4625 5.30842C10.4877 5.36916 10.5006 5.43426 10.5006 5.5C10.5006 5.56574 10.4877 5.63084 10.4625 5.69158C10.4374 5.75232 10.4005 5.80751 10.354 5.854C10.3075 5.90049 10.2523 5.93736 10.1916 5.96252C10.1308 5.98768 10.0657 6.00063 10 6.00063C9.93426 6.00063 9.86916 5.98768 9.80842 5.96252C9.74768 5.93736 9.69249 5.90049 9.646 5.854L8.5 4.707V8.5C8.5 8.63261 8.44732 8.75979 8.35355 8.85355C8.25979 8.94732 8.13261 9 8 9C7.86739 9 7.74021 8.94732 7.64645 8.85355C7.55268 8.75979 7.5 8.63261 7.5 8.5V4.707L6.354 5.854C6.26011 5.94789 6.13278 6.00063 6 6.00063C5.86722 6.00063 5.73989 5.94789 5.646 5.854C5.55211 5.76011 5.49937 5.63278 5.49937 5.5C5.49937 5.36722 5.55211 5.23989 5.646 5.146L7.646 3.146C7.69245 3.09944 7.74762 3.06249 7.80837 3.03729C7.86911 3.01208 7.93423 2.99911 8 2.99911C8.06577 2.99911 8.13089 3.01208 8.19163 3.03729C8.25238 3.06249 8.30755 3.09944 8.354 3.146L10.354 5.146Z" fill="#1985AC"/>
</svg>
